<svg xmlns="http://www.w3.org/2000/svg" width="282" height="27" viewBox="0 0 282 27"><defs><style>.cls-1{fill-rule:evenodd}</style></defs><path id="logo" class="cls-1" d="M929.522 43.118c-.693.752-1.907 2.188-2.475 2.884a3.532 3.532 0 0 1-2.655-3.317v-8.057a30.431 30.431 0 0 1-2.76-2.021h-.026v9.6a1.6 1.6 0 0 0 1.2.808.981.981 0 0 0 .783-.484l.233.214c-.806.863-2.242 2.448-2.968 3.237a28.54 28.54 0 0 0-3.019-2.4v-.032a1.4 1.4 0 0 0 .625-1.482v-8.073a1.424 1.424 0 0 0-.861-.76.944.944 0 0 0-.713.469l-.246-.282a40.538 40.538 0 0 0 2.94-2.971l2 1.914c.517-.4 1.611-1.357 2.188-1.914a38.866 38.866 0 0 0 4.452 3.046v.027a1.19 1.19 0 0 0-.674 1.158v7.548a1.216 1.216 0 0 0 .988 1.212 1.076 1.076 0 0 0 .754-.54l.233.217zm-12.446-.108c-.99 1-2.188 2.265-2.787 2.966l-2-1.915a36.68 36.68 0 0 0-2.188 1.915 38.4 38.4 0 0 0-4.452-3.047V42.9a1.189 1.189 0 0 0 .677-1.158V34.2a1.218 1.218 0 0 0-.99-1.212 1.078 1.078 0 0 0-.753.538l-.235-.216a83.306 83.306 0 0 0 2.472-2.883 3.53 3.53 0 0 1 2.657 3.315V41.8a29.63 29.63 0 0 1 2.759 2.021h.026v-9.78a1.2 1.2 0 0 0-.877-.764 1.039 1.039 0 0 0-.7.442l-.247-.309c.936-.833 2.3-2.172 3.02-2.959a48.03 48.03 0 0 0 2.72 2.7v.027c-.526.181-.768.529-.768 1.482v7.734a1.413 1.413 0 0 0 .809.78.911.911 0 0 0 .7-.35l.157.189zM892.108 26.7c-.884.781-1.692 1.726-2.552 2.588-.988-1-1.485-1.536-1.9-1.536a.822.822 0 0 0-.7.323l-.262-.269a65.06 65.06 0 0 0 2.554-2.56 4.674 4.674 0 0 0 1.874 1.508.992.992 0 0 0 .73-.3l.258.242zm1.771 16.036l-2.968 3.237a34.789 34.789 0 0 0-2.994-2.4v-.023c.388-.162.6-.62.6-1.564v-7.925a1.021 1.021 0 0 0-.86-.781 1 1 0 0 0-.728.432l-.287-.3c.917-.8 2.257-2.082 3.073-2.963a27.142 27.142 0 0 0 2.707 2.7v.026a1.072 1.072 0 0 0-.752 1.079V42.2a1.505 1.505 0 0 0 1.169.808.924.924 0 0 0 .807-.484l.236.214zm-7.212-10.133a8.462 8.462 0 0 0-1.952 3.181h-.027a12.408 12.408 0 0 0-1.929-3.019h-.024v9.545a1.473 1.473 0 0 0 1.1.891 2.084 2.084 0 0 0 1.142-.809l.237.241c-.847.865-2.39 2.536-3.1 3.343-.774-.669-2.4-1.9-3.23-2.48v-.027a1.647 1.647 0 0 0 .707-1.671V34.09a1.087 1.087 0 0 0-.835-.809 1.063 1.063 0 0 0-.767.431l-.273-.3c.817-.71 2.326-2.193 3.046-2.963l1.874 1.966 2.316-2.02a19.378 19.378 0 0 0 1.72 2.208zm-23.467 4.37c-.782.891-1.693 1.942-2.472 2.83a13.341 13.341 0 0 0-3.256-1.537 1.686 1.686 0 0 0-1.1.757l-.26-.244c.443-.486 2.162-2.454 2.475-2.858a15.558 15.558 0 0 0 3.332 1.536 1.371 1.371 0 0 0 1.014-.727l.262.244zm-6.118 6.145a80.266 80.266 0 0 0-2.474 2.884 3.531 3.531 0 0 1-2.656-3.317v-8.057a30.173 30.173 0 0 1-2.761-2.021h-.024v9.6a1.6 1.6 0 0 0 1.2.808.979.979 0 0 0 .782-.484l.234.214c-.806.863-2.24 2.448-2.967 3.237a28.554 28.554 0 0 0-3.021-2.4v-.032a1.4 1.4 0 0 0 .625-1.482v-8.032a1.473 1.473 0 0 0-.875-.775 1.143 1.143 0 0 0-.727.443l-.26-.281c1.039-.953 2.385-2.272 2.982-2.972l2.006 1.914c.515-.4 1.607-1.357 2.185-1.914a38.66 38.66 0 0 0 4.453 3.047v.026a1.188 1.188 0 0 0-.678 1.158v7.547a1.221 1.221 0 0 0 .99 1.212 1.075 1.075 0 0 0 .754-.54l.235.218zM832.555 26.7c-.885.781-1.695 1.726-2.554 2.588-.988-1-1.482-1.536-1.9-1.536a.825.825 0 0 0-.7.323l-.259-.269a66.842 66.842 0 0 0 2.551-2.56 4.661 4.661 0 0 0 1.874 1.508.981.981 0 0 0 .727-.3l.263.242zm1.3 16.036l-2.968 3.237a34.441 34.441 0 0 0-2.965-2.373v-.05c.39-.162.57-.62.57-1.564v-7.925a1.019 1.019 0 0 0-.86-.781 1 1 0 0 0-.729.432l-.247-.3c.917-.8 2.217-2.082 3.035-2.963a26.681 26.681 0 0 0 2.7 2.7v.026a1.146 1.146 0 0 0-.754 1.079V42.2a1.509 1.509 0 0 0 1.17.808.962.962 0 0 0 .835-.484l.208.214zm-6.406.379a81.172 81.172 0 0 0-2.472 2.884 3.528 3.528 0 0 1-2.657-3.317v-8.054a30.134 30.134 0 0 1-2.759-2.021h-.025v9.6a1.6 1.6 0 0 0 1.2.808.975.975 0 0 0 .782-.484l.232.214c-.8.863-2.238 2.448-2.966 3.237a31.3 31.3 0 0 0-2.954-2.382v-.054c.335-.148.556-.471.556-1.437v-8.073a1.4 1.4 0 0 0-.848-.755 1.125 1.125 0 0 0-.746.423l-.248-.282a36.13 36.13 0 0 0 2.961-2.971l2 1.914a36.38 36.38 0 0 0 2.188-1.914 38.776 38.776 0 0 0 4.452 3.046v.027a1.189 1.189 0 0 0-.678 1.158v7.548a1.22 1.22 0 0 0 .992 1.212 1.075 1.075 0 0 0 .753-.54l.233.217zM939 34.252c-.781.43-5.261 3.4-5.574 5.011v2.076c0 1.268 2.006 2.184 3.047 2.184a3.239 3.239 0 0 0 1.614-1.214l.287.3-3.437 3.37c-3-.593-4.66-2.318-4.66-4.1V35.92a1.132 1.132 0 0 0-.835-1.132v-.026a62.466 62.466 0 0 0 6.119-4.311c.832 1.024 2.474 2.829 3.439 3.8zm-3.017 1.319c-.809-.861-1.98-2.291-2.527-2.992h-.025v5.391h.025a10.34 10.34 0 0 1 2.527-2.4zm-31.691 6.2a39.988 39.988 0 0 0-5.6 4.232 23.879 23.879 0 0 0-4.556-2.479V43.5c.392-.163.628-.513.628-1.483V28.752a1.024 1.024 0 0 0-.861-.781 1 1 0 0 0-.729.433l-.285-.3c.912-.8 2.253-2.083 3.069-2.965a26.923 26.923 0 0 0 2.71 2.7v.026a1.147 1.147 0 0 0-.756 1.079v3.585a34.47 34.47 0 0 0 2-2.1c2.812 1.427 3.879 2.29 3.879 4.447v5.876a.981.981 0 0 0 .5 1v.018zm-3.644 1.967v-8.3c0-.963-.73-1.968-2.709-2.722h-.025v9.459a22.94 22.94 0 0 1 2.708 1.562h.026zm-20.657-16.764a3.3 3.3 0 0 1-3.491 3.477 6.447 6.447 0 0 1-1.326-.145v12.88a6.376 6.376 0 0 0 3.58-2.186l.26.334c-1.324 2.336-3.478 4.915-6.886 4.915-4.586 0-7.891-3.235-7.891-8.219 0-4.555 3.1-7.278 6.379-9.084l.262.242a9.89 9.89 0 0 0-3.463 7.843c0 2.807.9 4.35 2.228 5.233a3 3 0 0 0 .741-2.458v-5.341c0-1.97 1.781-3.341 3.517-4.522-2.219-.781-4.385-2.188-6.876-2.188-2.294 0-3.384.727-3.384 1.968a1.368 1.368 0 0 0 1.328 1.482 1.705 1.705 0 0 0 1.04-.27l-.154.755a2.892 2.892 0 0 1-.679.081c-1.223 0-2.055-.782-2.055-2.372 0-2.7 1.952-4.636 5.18-4.636 4.128 0 6.807 3.1 9.5 3.1 1.121 0 1.616-.349 1.616-1.1a1.257 1.257 0 0 0-1.121-1.241l.6-.431a2.122 2.122 0 0 1 1.094 1.889zm-5.208 16.272V30.215a11.431 11.431 0 0 1-.443-.126 3.528 3.528 0 0 0-1.092 3.084v5.39c0 1.822-1.05 2.572-3.281 3.935a7.971 7.971 0 0 0 3.827.81 7.464 7.464 0 0 0 .989-.061zm-30.9-10.1a1.052 1.052 0 0 0-.575 1.05v7.494a1.062 1.062 0 0 0 .471 1v.027a16.882 16.882 0 0 0-5.7 3.262c-2.5-1.239-3.853-2.48-3.853-4.664v-5.636a1.027 1.027 0 0 0-.6-1v-.024a30.117 30.117 0 0 0 5.676-4.231 29.221 29.221 0 0 0 4.583 2.7v.028zM840.16 43.98v-9.515a18.149 18.149 0 0 1-2.76-1.778h-.025v8.248c0 1.428 1.561 2.481 2.76 3.046h.025zm-24.638-1.094s-2.153 2.43-2.776 3.169a4.079 4.079 0 0 1-2.759-2.4l-2.474 2.506c-3.333-.89-5.805-2.4-5.805-5.5V28.942c0-.971-.392-1.509-1.066-1.509a1.091 1.091 0 0 0-1.232 1.132 2.472 2.472 0 0 0 .37 1.239l-.494-.027a2.858 2.858 0 0 1-.339-1.294 3.12 3.12 0 0 1 3.436-3.26c1.694 0 2.761 1.321 2.761 3.234v11.59a2.4 2.4 0 0 0 1.015 2.111v-14.7a1.049 1.049 0 0 0-.392-.97 3.3 3.3 0 0 0 .731-1.024h.054v7.977a4.034 4.034 0 0 0 1.612.351 3.9 3.9 0 0 0 1.639-.351v-4.2a1.541 1.541 0 0 0-1.143-1.025.752.752 0 0 0-.626.322l-.234-.189 2.836-3.072 3.515 3.045v.026a1.258 1.258 0 0 0-.886 1.322v11.955a1.544 1.544 0 0 0 1.271 1.663.757.757 0 0 0 .439-.272l.325-.344.222.215zm-5.722-6.857V33.82a4.176 4.176 0 0 1-1.64.3 4.3 4.3 0 0 1-1.612-.3v2.209a4.323 4.323 0 0 1 1.612-.295 4.179 4.179 0 0 1 1.64.295zm.1 7.279a7.636 7.636 0 0 1-.1-1v-5.9a3.9 3.9 0 0 0-1.64-.351 4.034 4.034 0 0 0-1.612.351v6.031c.134.092.284.182.44.276a5.132 5.132 0 0 0 2.395.7 1.066 1.066 0 0 0 .521-.109zm-48.256-16.355c-.866.761-1.653 1.681-2.49 2.522-.966-.973-1.45-1.5-1.856-1.5a.8.8 0 0 0-.684.317l-.256-.263a57.92 57.92 0 0 0 2.49-2.5 4.566 4.566 0 0 0 1.83 1.471.956.956 0 0 0 .712-.289l.254.237zm1.725 15.633l-2.9 3.153a33.979 33.979 0 0 0-2.919-2.339v-.025c.382-.158.586-.6.586-1.524v-7.725a1 1 0 0 0-.84-.763.976.976 0 0 0-.71.42l-.279-.288c.89-.79 2.21-2.024 3-2.891a26.034 26.034 0 0 0 2.642 2.627v.026a1.047 1.047 0 0 0-.738 1.05v7.753a1.468 1.468 0 0 0 1.143.788.908.908 0 0 0 .787-.474l.229.21zm-26.981.37c-.687.735-1.854 2.126-2.414 2.811a3.447 3.447 0 0 1-2.592-3.232v-7.857a29.264 29.264 0 0 1-2.693-1.971h-.025v9.353a1.556 1.556 0 0 0 1.167.789.956.956 0 0 0 .762-.474l.228.209c-.787.841-2.185 2.392-2.9 3.153a27.649 27.649 0 0 0-2.947-2.338v-.024a1.363 1.363 0 0 0 .61-1.445V34.1a1.362 1.362 0 0 0-.786-.762.884.884 0 0 0-.687.342l-.152-.184c.965-.973 2.134-2.208 2.719-2.891l1.955 1.865a31.289 31.289 0 0 0 2.135-1.865 37.708 37.708 0 0 0 4.346 2.969v.026a1.162 1.162 0 0 0-.661 1.13v7.359a1.189 1.189 0 0 0 .964 1.183 1.056 1.056 0 0 0 .737-.527l.23.212zm-52.05 0a72.843 72.843 0 0 0-2.414 2.811 3.447 3.447 0 0 1-2.592-3.232v-7.857a29.244 29.244 0 0 1-2.692-1.971h-.028v9.328a1.516 1.516 0 0 0 1.117.815.938.938 0 0 0 .815-.474l.228.209c-.788.815-2.159 2.338-2.9 3.153a29.322 29.322 0 0 0-2.921-2.338v-.025a1.416 1.416 0 0 0 .584-1.471V29.921c0-2.5 2.42-4.134 3.971-5l.2.273c-.686.512-1.117 1.5-1.117 3.232v4.046c.5-.393 1.57-1.323 2.134-1.865a37.82 37.82 0 0 0 4.344 2.969v.024a1.161 1.161 0 0 0-.66 1.13v7.36a1.189 1.189 0 0 0 .965 1.183 1.057 1.057 0 0 0 .737-.527l.23.211zm109.725-9.724a1.025 1.025 0 0 0-.559 1.024v7.3a1.041 1.041 0 0 0 .457.974v.025a16.5 16.5 0 0 0-5.563 3.178c-2.441-1.208-3.761-2.417-3.761-4.544V35.7a1 1 0 0 0-.584-.974V34.7a29.4 29.4 0 0 0 5.539-4.126 28.331 28.331 0 0 0 4.472 2.628v.027zm-3.633 10.563v-9.276a17.8 17.8 0 0 1-2.695-1.734h-.024v8.069c0 1.389 1.525 2.39 2.692 2.94h.027zm-7.293 1.945c0 .71-.606 1.449-2.718 2.946-1.268.9-3.575 1.81-4.107 2.31-.661-.971-.747-1.419-1.456-1.419a9.64 9.64 0 0 0-3.6.789l-.178-.183a7.007 7.007 0 0 1 5.1-2.865 4.345 4.345 0 0 1 3.252 1.393 1.984 1.984 0 0 0 .888-1.551c0-1.261-.862-1.552-1.119-3.233h-.024c-.508.42-1.575 1.366-2.107 1.813a35.48 35.48 0 0 0-4.347-2.969v-.028a1.332 1.332 0 0 0 .663-1.208V35.7a1 1 0 0 0-.586-.974v-.021a29.393 29.393 0 0 0 5.539-4.126 28.292 28.292 0 0 0 4.472 2.628v.026a1.024 1.024 0 0 0-.557 1.024v8.513c0 1.341.887 1.5.887 2.97zm-3.964-2.1v-9.121a17.979 17.979 0 0 1-2.693-1.734h-.026v8.881a23.189 23.189 0 0 1 2.694 1.971h.025zm-6.757-9.328c-.762.42-5.133 3.311-5.437 4.889v2.023c0 1.235 1.955 2.129 2.969 2.129a3.152 3.152 0 0 0 1.576-1.184l.28.289-3.352 3.284c-2.922-.578-4.547-2.259-4.547-3.993v-5.81a1.11 1.11 0 0 0-.816-1.1v-.03a60.615 60.615 0 0 0 5.972-4.2c.814 1 2.412 2.759 3.355 3.7zm-2.948 1.288c-.787-.841-1.931-2.234-2.467-2.916h-.022v5.254H767a10.152 10.152 0 0 1 2.467-2.338zM755.9 41.326a45.021 45.021 0 0 0-6.047 4.572 5.679 5.679 0 0 0-4.37-2.261 5.031 5.031 0 0 0-4.292 2.1l-.306-.237c1.931-2.416 2.616-3.152 2.616-4.807v-6.409c0-2 1.3-2.97 3.661-4.547l.251.237c-.939.841-1.114 1.551-1.114 3.049v5.989a3.588 3.588 0 0 1-1.271 2.708v.026a6.331 6.331 0 0 1 2.589-.567 6.633 6.633 0 0 1 .739.063V29.076a28.842 28.842 0 0 1-3.864.4 2.709 2.709 0 0 1-2.972-2.731c0-1.788 1.092-2.681 2.9-2.734l.153.684c-.739-.106-1.982 0-1.982.946 0 .683.584.84 1.879.84 1.373 0 3.735-.6 5.717-.6 3.76 0 5.106 2.049 5.106 4.887v9.117c0 1.156.229 1.341.609 1.394v.053zm-3.988-7.8v-1.58c0-2.129-.381-2.969-1.958-2.969-.445 0-.844.022-1.218.058v4.486a3.971 3.971 0 0 0 1.576.342 3.823 3.823 0 0 0 1.6-.342zm0 2.523v-2.16a4.07 4.07 0 0 1-1.6.29 4.216 4.216 0 0 1-1.576-.29v2.155a4.246 4.246 0 0 1 1.576-.288 4.1 4.1 0 0 1 1.6.288zm0 6.937v-6.57a3.838 3.838 0 0 0-1.6-.341 3.983 3.983 0 0 0-1.576.341v4.9a5.845 5.845 0 0 1 3.152 1.671h.024zm-27.288-.394c-2.693 2.916-2.9 3.153-2.9 3.153a27.517 27.517 0 0 0-2.338-1.917c-.761.736-1.041 1.078-1.8 1.917a3.991 3.991 0 0 1-3.708-4.046c0-2.942 2.54-4.729 4.216-5.439a14.572 14.572 0 0 0-3.48-3.416v-.03l2.21-2.208a2.254 2.254 0 0 0 1.625 1.156 2.551 2.551 0 0 0 1.982-1.156c.458.526 2.007 1.944 2.77 2.6v.027a1.273 1.273 0 0 0-.737 1.5v7.331a1.546 1.546 0 0 0 1.144.788.966.966 0 0 0 .787-.474l.228.21zm-5.235-5.392v-3.7l-.584-.6a3.324 3.324 0 0 1-2.313.762v.018a13.9 13.9 0 0 1 2.871 3.521h.026zm0 6.016v-3.809a4.575 4.575 0 0 0-1.016-2.759 4.1 4.1 0 0 0-1.779 3.678c0 1.734 1.042 3.074 2.363 3.074a.527.527 0 0 0 .432-.184zM713.8 36.65c0 3.521-4.014 6.963-6.733 9.459a6.385 6.385 0 0 0-4.344-2.155 4.559 4.559 0 0 0-4.116 1.97l-.18-.133c.663-2.495 2.542-4.465 5.184-4.465a7.625 7.625 0 0 1 5.336 2.024c2.312-2.367 2.921-3.39 2.921-4.837 0-.973-.2-2.209-2.388-3.242a16.4 16.4 0 0 0-2.671-.931l-.4.6a12.1 12.1 0 0 1 3.02 1.107 3.045 3.045 0 0 1 1.677 2.966 3.9 3.9 0 0 1-1.269 2.314h-.027c-.076-1.707-.666-2.535-4.9-3.469l-.363-.08c-.234.36-.465.709-.679 1.052a2.422 2.422 0 0 1-1.881 1.262 1.049 1.049 0 0 1-1.143-.947.922.922 0 0 1 1.016-1c.555 0 .972.679 1.3.679a.285.285 0 0 0 .254-.154l.66-1.005c-1.89-.455-4.141-1.357-4.141-3.7a3.341 3.341 0 0 1 .814-2.26h.024c.252 1.427 1.177 2.113 5.188 3.116l.4-.6-.28-.07c-2.443-.608-5.056-1.261-5.056-4.231 0-2.786 2.439-4.388 5.717-4.388a8.212 8.212 0 0 1 4.712 1.329l.472-.646.33.237a191.84 191.84 0 0 0-3.5 5.009c.379.107.734.212 1.061.327 3.239 1.116 3.989 2.386 3.989 4.86zm-3.942-7.55a6.165 6.165 0 0 0-4.19-2.02c-2.387 0-3.2.707-3.2 1.629 0 1.366 1.94 1.643 4.8 2.365.365.093.711.179 1.039.266.53-.775 1.05-1.528 1.548-2.241zm-16.374 5.205c-.762.42-5.133 3.311-5.438 4.889v2.023c0 1.237 1.956 2.129 2.973 2.129a3.159 3.159 0 0 0 1.575-1.184l.278.289-3.353 3.284c-2.923-.578-4.548-2.259-4.548-3.993v-5.803a1.1 1.1 0 0 0-.812-1.1v-.03a60.96 60.96 0 0 0 5.97-4.2c.813 1 2.416 2.759 3.355 3.7zm-2.947 1.295c-.787-.841-1.931-2.234-2.466-2.916h-.025v5.254h.025a10.076 10.076 0 0 1 2.466-2.338zm-17.1-8.329a3.161 3.161 0 0 1-3.38 3.337 6.228 6.228 0 0 1-1.3-.141v12.554a5.255 5.255 0 0 0 3.87-2.877l.323.315c-1.216 2.7-3.247 5.544-7.166 5.544-4.471 0-7.7-3.153-7.7-8.014 0-4.439 3.025-7.094 6.227-8.856l.255.238a9.643 9.643 0 0 0-3.381 7.648c0 2.735.811 4.3 2.108 5.169a3.112 3.112 0 0 0 .788-2.464v-5.2c0-1.92 1.741-3.257 3.433-4.409-2.165-.76-4.278-2.134-6.71-2.134-2.236 0-3.3.711-3.3 1.92a1.336 1.336 0 0 0 1.3 1.444 1.674 1.674 0 0 0 1.017-.262l-.154.736a2.807 2.807 0 0 1-.659.078c-1.2 0-2.007-.761-2.007-2.312 0-2.814 1.9-4.52 5.056-4.52 4.031 0 6.642 3.022 9.274 3.022 1.091 0 1.574-.342 1.574-1.078a1.222 1.222 0 0 0-1.091-1.207l.584-.422a2.078 2.078 0 0 1 1.042 1.893zM668.38 43.08V30.375a8.603 8.603 0 0 1-.429-.121 3.435 3.435 0 0 0-1.07 3.006v5.254c0 1.778-1.065 2.55-3.243 3.879a7.953 7.953 0 0 0 3.779.748 7.7 7.7 0 0 0 .963-.06z" transform="translate(-657 -24)"/></svg>